# xmcd
#
# Track frame offsets: 
#        150
#        19430
#        37437
#        62620
#        83712
#        107290
#        128607
#        154235
#        176880
#        195417
#        211122
#        231605
#        255550
#        276297
#        297555
#        317140
#        331290
#
# Disc length: 4692 seconds
#
# Revision: 3
# Processed by: cddbd v1.5.2PL0 Copyright (c) Steve Scherf et al.
# Submitted via: ExactAudioCopy v0.99pb5
#
DISCID=fe125211
DTITLE=MC Hammer - The Hits
DYEAR=2000
DGENRE=Hip-Hop
TTITLE0=U Can't Touch This
TTITLE1=Addams Groove
TTITLE2=Too Legit To Quit
TTITLE3=This Is The Way We Roll
TTITLE4=Pray
TTITLE5=Turn This Mutha Out
TTITLE6=Gaining Momentum
TTITLE7=Do Not Pass Me By
TTITLE8=Let's Get It Started
TTITLE9=They Put Me In The Mix
TTITLE10=Black Is Black
TTITLE11=Help The Children
TTITLE12=Pump It Up (Here's The News)
TTITLE13=Have You Seen Her
TTITLE14=U Can't Touch This (Club Version)
TTITLE15=Feel My Power
TTITLE16=Yo!! Sweetness
EXTD=sebmal@pro.onet.pl
EXTT0=
EXTT1=
EXTT2=
EXTT3=
EXTT4=
EXTT5=
EXTT6=
EXTT7=
EXTT8=
EXTT9=
EXTT10=
EXTT11=
EXTT12=
EXTT13=
EXTT14=
EXTT15=
EXTT16=
PLAYORDER=
